<svg height="512pt" viewBox="-25 0 512 512.00893" width="512pt" xmlns="http://www.w3.org/2000/svg"><path d="m111.203125 477.867188c60.570313.730468 110.308594-47.695313 111.195313-108.261719 0-48.460938-71.617188-150.800781-96.289063-184.621094 17.933594-6.507813 29.339844-24.15625 27.917969-43.179687-1.421875-19.023438-15.328125-34.777344-34.027344-38.550782v-32.714844l6.390625-11.199218c7.101563-12.253906 7.046875-27.378906-.136719-39.585938-7.03125-12.285156-20.136718-19.8359372-34.292968-19.753906-17.492188.0859375-32.886719 11.542969-37.992188 28.273438-.105469.34375-.1875.699218-.246094 1.054687l-6.828125 41.371094c-2.148437 13.164062-7.097656 25.714843-14.507812 36.804687l-21.886719 32.828125c-2.613281 3.921875-1.558594 9.21875 2.363281 11.835938 3.921875 2.613281 9.222657 1.554687 11.835938-2.363281l21.914062-32.835938c8.769531-13.113281 14.617188-27.953125 17.152344-43.523438l6.742187-40.753906c3.054688-9.273437 11.6875-15.5625 21.453126-15.625 8.054687 0 15.5 4.285156 19.542968 11.25 4.042969 6.964844 4.074219 15.558594.082032 22.550782l-7.527344 13.132812c-.746094 1.296875-1.132813 2.769531-1.125 4.265625v34.988281c-18.609375 3.769532-32.472656 19.40625-33.988282 38.332032-1.515624 18.925781 9.679688 36.570312 27.453126 43.253906-21.53125 29.5-79.257813 111.789062-93.261719 164.40625 0 .066406-.042969.125-.050781.203125-1.871094 6.558593-2.90625 13.328125-3.08203175 20.148437.87890575 60.574219 50.62109375 109.003906 111.19921875 108.269532zm-.425781-59.734376c-24.179688-.859374-43.144532-21.042968-42.507813-45.226562 0-12.882812 17.203125-49.765625 42.667969-91.996094 25.457031 42.230469 42.667969 79.113282 42.667969 91.996094.636719 24.21875-18.386719 44.414062-42.597657 45.226562zm7.386718-158.105468c-1.65625-2.363282-4.363281-3.773438-7.25-3.773438-2.890624 0-5.597656 1.410156-7.253906 3.773438-8.765625 14.039062-52.5 85.417968-52.5 112.835937-.015625 10.324219 2.449219 20.496094 7.195313 29.664063-18.570313-12.082032-32.074219-30.539063-37.972657-51.890625 13.21875-45.269531 63.597657-120.082031 90.820313-157.160157 27.210937 37.070313 77.566406 111.839844 90.800781 157.117188-5.996094 21.71875-19.851562 40.429688-38.875 52.503906 4.964844-9.308594 7.554688-19.699218 7.542969-30.25 0-27.417968-43.734375-98.800781-52.507813-112.835937zm-6.960937 200.773437c-44.277344.449219-82.804687-30.207031-92.3125-73.453125 20.78125 29.824219 54.789063 47.65625 91.144531 47.785156.304688 0 .59375.050782.902344.050782h.257812c36.785157.21875 71.320313-17.695313 92.328126-47.898438-9.488282 43.273438-48.023438 73.957032-92.320313 73.515625zm-25.335937-315.734375c0-14.136718 11.460937-25.597656 25.601562-25.597656 14.136719 0 25.597656 11.460938 25.597656 25.597656 0 14.140625-11.460937 25.601563-25.597656 25.601563-14.140625 0-25.601562-11.460938-25.601562-25.601563zm0 0"/><path d="m350.136719 512c60.570312.730469 110.308593-47.691406 111.195312-108.261719 0-48.460937-71.617187-150.800781-96.289062-184.617187 17.933593-6.511719 29.339843-24.160156 27.917969-43.183594-1.421876-19.023438-15.328126-34.777344-34.027344-38.550781v-32.714844l6.390625-11.195313c7.015625-12.277343 6.964843-27.355468-.128907-39.585937-7.097656-12.226563-20.164062-19.753906-34.300781-19.757813-17.492187.085938-32.890625 11.542969-37.992187 28.273438-.105469.347656-.1875.699219-.246094 1.058594l-6.828125 41.367187c-2.148437 13.164063-7.097656 25.714844-14.507813 36.804688l-21.886718 32.828125c-2.617188 3.921875-1.558594 9.21875 2.363281 11.835937 3.921875 2.613281 9.222656 1.558594 11.835937-2.363281l21.914063-32.835938c8.769531-13.113281 14.617187-27.953124 17.152344-43.519531l6.742187-40.757812c3.054688-9.273438 11.6875-15.5625 21.453125-15.625 8.050781 0 15.5 4.285156 19.542969 11.25 4.042969 6.964843 4.074219 15.558593.082031 22.550781l-7.527343 13.132812c-.746094 1.300782-1.132813 2.769532-1.125 4.269532v34.984375c-18.609376 3.773437-32.472657 19.40625-33.988282 38.332031s9.679688 36.570312 27.453125 43.253906c-21.53125 29.5-79.257812 111.789063-93.261719 164.40625 0 .066406 0 .125-.050781.203125-1.875 6.558594-2.910156 13.328125-3.082031 20.148438.878906 60.574219 50.621094 109.003906 111.199219 108.269531zm-.425781-59.734375c-24.179688-.859375-43.144532-21.042969-42.507813-45.226563 0-12.882812 17.203125-49.765624 42.667969-91.996093 25.453125 42.230469 42.667968 79.113281 42.667968 91.996093.636719 24.21875-18.386718 44.417969-42.601562 45.226563zm7.386718-158.105469c-1.660156-2.347656-4.355468-3.742187-7.230468-3.742187s-5.570313 1.394531-7.230469 3.742187c-8.765625 14.039063-52.5 85.421875-52.5 112.835938-.015625 10.324218 2.449219 20.496094 7.195312 29.664062-18.582031-12.070312-32.105469-30.519531-38.015625-51.875 13.21875-45.269531 63.597656-120.082031 90.820313-157.15625 27.210937 37.066406 77.566406 111.835938 90.800781 157.113282-5.996094 21.71875-19.851562 40.433593-38.875 52.507812 4.964844-9.308594 7.554688-19.703125 7.542969-30.253906 0-27.433594-43.734375-98.8125-52.507813-112.851563zm-6.960937 200.773438c-44.277344.449218-82.804688-30.207032-92.316407-73.453125 20.785157 29.824219 54.792969 47.65625 91.144532 47.785156.308594 0 .597656.050781.90625.050781h.257812c36.785156.21875 71.320313-17.695312 92.328125-47.898437-9.488281 43.273437-48.023437 73.957031-92.320312 73.515625zm-25.335938-315.734375c0-14.136719 11.460938-25.597657 25.597657-25.597657 14.140624 0 25.601562 11.460938 25.601562 25.597657 0 14.140625-11.460938 25.601562-25.601562 25.601562-14.136719 0-25.597657-11.460937-25.597657-25.601562zm0 0"/></svg>