<svg height="512pt" viewBox="0 0 512 512" width="512pt" xmlns="http://www.w3.org/2000/svg"><path d="m508.867188 151.464844c-.03125-.042969-.058594-.085938-.085938-.132813-2.152344-5.1875-5.304688-9.902343-9.28125-13.867187l-124.964844-124.972656c-3.96875-3.980469-8.6875-7.132813-13.882812-9.285157-.050782 0-.078125-.058593-.128906-.074219-.050782-.019531-.210938 0-.3125-.0625-5.039063-2.023437-10.417969-3.06640575-15.847657-3.070312h-176.726562c-5.429688.00390625-10.808594 1.046875-15.847657 3.070312-.101562.042969-.210937 0-.3125.0625-.105468.058594-.078124.058594-.128906.074219-5.195312 2.152344-9.914062 5.304688-13.882812 9.285157l-124.964844 124.972656c-3.976562 3.964844-7.128906 8.679687-9.28125 13.867187-.027344.046875-.054688.089844-.085938.132813-.042968.113281 0 .222656-.0625.335937-2.023437 5.035157-3.06640575 10.410157-3.070312 15.835938v176.726562c.00390625 5.425781 1.046875 10.800781 3.070312 15.835938.042969.113281 0 .222656.0625.335937.058594.109375.066407.101563.09375.160156 2.152344 5.179688 5.304688 9.878907 9.273438 13.839844l124.964844 124.972656c3.96875 3.980469 8.6875 7.132813 13.882812 9.285157.050782 0 .078125.058593.128906.074219.121094.03125.246094.054687.375.070312 5.019532 2.015625 10.375 3.054688 15.785157 3.0625h176.726562c5.410157-.007812 10.765625-1.046875 15.785157-3.0625.128906-.015625.253906-.039062.375-.070312.050781 0 .078124-.058594.128906-.074219 5.195312-2.152344 9.914062-5.304688 13.882812-9.285157l124.964844-124.972656c3.96875-3.960937 7.121094-8.660156 9.273438-13.839844 0-.058593.070312-.101562.09375-.160156.027343-.0625 0-.222656.0625-.335937 2.023437-5.035157 3.066406-10.410157 3.070312-15.835938v-176.726562c-.003906-5.425781-1.046875-10.800781-3.070312-15.835938-.042969-.113281-.019532-.222656-.0625-.335937zm-188.867188 233.585937c-4.789062 4.804688-11.304688 7.5-18.089844 7.484375h-91.820312c-6.792969.019532-13.316406-2.671875-18.117188-7.484375l-65.023437-65.023437c-4.8125-4.800782-7.503907-11.324219-7.484375-18.117188v-91.820312c-.019532-6.792969 2.675781-13.316406 7.484375-18.117188l65.023437-65.023437c4.800782-4.8125 11.324219-7.503907 18.117188-7.484375h91.820312c4.046875-.027344 8.039063.925781 11.636719 2.773437 2.382813 1.242188 4.566406 2.828125 6.480469 4.710938l43.089844 43.09375c-5.023438-.390625-9.960938-1.515625-14.660157-3.335938-4.351562-1.558593-9.15625.636719-10.828125 4.949219-1.675781 4.3125.394532 9.171875 4.660156 10.957031 26.335938 10.257813 39.40625 39.894531 29.21875 66.261719-.820312 2.109375-.765624 4.460938.148438 6.53125s2.613281 3.691406 4.722656 4.511719c2.109375.816406 4.460938.761719 6.53125-.148438 2.070313-.914062 3.695313-2.613281 4.511719-4.726562 1.355469-3.417969 3.070313-6.679688 5.121094-9.734375v56.601562c.023437 6.792969-2.671875 13.316406-7.484375 18.117188zm-302.933594-40.6875v-176.726562c0-.535157.128906-1.058594.164063-1.585938l86.664062 33.40625c-.941406 3.46875-1.445312 7.039063-1.496093 10.632813v91.820312c.050781 3.59375.554687 7.164063 1.496093 10.632813l-86.664062 33.40625c-.035157-.527344-.164063-1.050781-.164063-1.585938zm408.867188-138.480469c-10.988282 1.464844-21.425782 5.671876-30.363282 12.230469-.195312.128907-.386718.269531-.570312.417969-1.195312.851562-2.464844 1.644531-3.601562 2.558594-1.757813-12.679688-7.023438-24.617188-15.199219-34.464844 12.703125-1.78125 24.65625-7.054688 34.535156-15.234375 1.753906 12.691406 7.019531 24.636719 15.199219 34.492187zm-16.332032 96.027344v-72.441406c1.578126-1.003906 3.210938-1.925781 4.886719-2.753906 12.425781-5.507813 26.535157-5.816406 39.1875-.855469 4.355469 1.558594 9.15625-.636719 10.828125-4.949219 1.675782-4.3125-.394531-9.171875-4.660156-10.957031-10.347656-4.019531-19.097656-11.316406-24.917969-20.769531l59.84375-23.097656c0 .527343.164063 1.046874.164063 1.585937v176.726563c0 .535156-.128906 1.054687-.164063 1.585937l-86.664062-33.441406c.941406-3.46875 1.445312-7.039063 1.496093-10.632813zm77.832032-152.378906c.246094.246094.417968.554688.65625.800781l-59.675782 23.039063c-2.242187-9.898438-1.46875-20.246094 2.210938-29.703125 1.101562-2.84375.605469-6.058594-1.304688-8.433594-1.914062-2.375-4.945312-3.550781-7.957031-3.085937-3.015625.46875-5.550781 2.507812-6.652343 5.347656-4.875 12.679687-14.621094 22.882812-27.066407 28.332031-1.101562.488281-2.21875.851563-3.335937 1.28125l-52.21875-52.214844c-1.300782-1.269531-2.683594-2.453125-4.136719-3.542969l33.707031-87.457031c.253906.238281.5625.417969.808594.65625zm-143.070313-132.464844c.535157 0 1.058594.128906 1.585938.164063l-33.355469 86.527343c-3.492188-.898437-7.082031-1.355468-10.683594-1.359374h-91.820312c-3.59375.050781-7.164063.554687-10.632813 1.496093l-33.40625-86.664062c.527344 0 1.050781-.164063 1.585938-.164063zm-194.832031 7.492188c.246094-.238282.554688-.417969.808594-.65625l33.75 87.550781c-1.464844 1.046875-2.863282 2.1875-4.179688 3.414063l-65.027344 65.023437c-1.222656 1.320313-2.363281 2.710937-3.410156 4.171875l-87.578125-33.730469c.238281-.246093.410157-.554687.65625-.800781zm-124.964844 337.910156c-.246094-.246094-.417968-.554688-.65625-.800781l87.542969-33.75c1.050781 1.460937 2.191406 2.855469 3.414063 4.171875l65.023437 65.027344c1.316406 1.226562 2.714844 2.367187 4.183594 3.410156l-33.734375 87.578125c-.253906-.238281-.5625-.417969-.808594-.65625zm143.070313 132.464844c-.535157 0-1.058594-.128906-1.585938-.164063l33.40625-86.664062c3.46875.941406 7.039063 1.445312 10.632813 1.496093h91.820312c3.59375-.050781 7.164063-.554687 10.632813-1.496093l33.40625 86.664062c-.527344 0-1.050781.164063-1.585938.164063zm194.832031-7.492188c-.246094.238282-.554688.417969-.808594.65625l-33.75-87.550781c1.46875-1.046875 2.863282-2.1875 4.179688-3.414063l65.027344-65.023437c1.222656-1.320313 2.363281-2.710937 3.410156-4.171875l87.578125 33.730469c-.238281.246093-.410157.554687-.65625.800781zm0 0"/><path d="m145.066406 204.800781c-4.710937 0-8.53125 3.820313-8.53125 8.53125v85.335938c0 4.710937 3.820313 8.53125 8.53125 8.53125 4.714844 0 8.535156-3.820313 8.535156-8.53125v-85.335938c0-4.710937-3.820312-8.53125-8.535156-8.53125zm0 0"/><path d="m34.132812 0c-4.710937 0-8.53125 3.820312-8.53125 8.535156v8.53125h-8.535156c-4.710937 0-8.53125 3.820313-8.53125 8.535156 0 4.710938 3.820313 8.53125 8.53125 8.53125h8.535156v8.535157c0 4.710937 3.820313 8.53125 8.53125 8.53125 4.714844 0 8.535157-3.820313 8.535157-8.53125v-8.535157h8.53125c4.714843 0 8.535156-3.820312 8.535156-8.53125 0-4.714843-3.820313-8.535156-8.535156-8.535156h-8.53125v-8.53125c0-4.714844-3.820313-8.535156-8.535157-8.535156zm0 0"/><path d="m503.464844 59.734375h-8.53125v-8.535156c0-4.710938-3.820313-8.53125-8.535156-8.53125-4.710938 0-8.53125 3.820312-8.53125 8.53125v8.535156h-8.535157c-4.710937 0-8.53125 3.820313-8.53125 8.53125 0 4.714844 3.820313 8.535156 8.53125 8.535156h8.535157v8.53125c0 4.714844 3.820312 8.535157 8.53125 8.535157 4.714843 0 8.535156-3.820313 8.535156-8.535157v-8.53125h8.53125c4.714844 0 8.535156-3.820312 8.535156-8.535156 0-4.710937-3.820312-8.53125-8.535156-8.53125zm0 0"/></svg>