<svg height="511pt" viewBox="0 -68 511.14667 511" width="511pt" xmlns="http://www.w3.org/2000/svg"><path d="m408.746094 38.773438v-13.03125c-1.28125-15.261719-14.585938-26.667969-29.867188-25.601563-15.277344-1.066406-28.582031 10.339844-29.867187 25.601563v13.167968c-43.125 13.054688-78.09375 53.425782-93.457031 106.222656-18.804688-64.648437-66.96875-110.855468-123.535157-110.855468-72.816406 0-132.019531 76.558594-132.019531 170.664062 0 94.105469 59.203125 170.667969 132.019531 170.667969 56.523438 0 104.730469-46.207031 123.535157-110.855469 18.808593 64.648438 67.003906 110.855469 123.53125 110.855469 72.824218 0 132.0625-76.5625 132.0625-170.667969 0-80.910156-43.835938-148.699218-102.402344-166.167968zm-42.667969-13.03125c0-4.546876 5.976563-8.53125 12.800781-8.53125 6.828125 0 12.800782 3.984374 12.800782 8.53125v9.386718c-8.496094-1.121094-17.101563-1.121094-25.601563 0zm-234.058594 332.800781c-63.402343 0-114.953125-68.90625-114.953125-153.601563 0-84.691406 51.550782-153.597656 114.953125-153.597656 56.875 0 104.105469 55.464844 113.269531 128h-7.210937c-4.710937 0-8.53125 3.820312-8.53125 8.53125 0 4.714844 3.820313 8.535156 8.53125 8.535156h8.621094c.117187 2.839844.324219 5.648438.324219 8.53125 0 5.777344-.289063 11.453125-.75 17.066406h-8.195313c-4.710937 0-8.53125 3.820313-8.53125 8.535157 0 4.710937 3.820313 8.53125 8.53125 8.53125h5.976563c-11.65625 68.269531-57.414063 119.46875-112.035157 119.46875zm247.066407 0c-54.613282 0-100.371094-51.199219-112.035157-119.46875h5.164063c4.710937 0 8.53125-3.820313 8.53125-8.53125 0-4.714844-3.820313-8.535157-8.53125-8.535157h-7.375c-.46875-5.613281-.75-11.289062-.75-17.066406 0-2.882812.203125-5.691406.324218-8.53125h7.800782c4.710937 0 8.53125-3.820312 8.53125-8.535156 0-4.710938-3.820313-8.53125-8.53125-8.53125h-6.394532c9.167969-72.535156 56.398438-128 113.265626-128 63.410156 0 114.992187 68.90625 114.992187 153.597656 0 84.695313-51.582031 153.601563-114.992187 153.601563zm0 0"/><path d="m379.085938 76.941406c-48.460938 0-89.394532 58.617188-89.394532 128 0 69.386719 40.957032 128 89.394532 128 48.433593 0 89.394531-58.613281 89.394531-128 0-69.382812-40.960938-128-89.394531-128zm0 238.933594c-39.210938 0-72.328126-50.796875-72.328126-110.933594 0-60.132812 33.117188-110.933594 72.328126-110.933594 39.210937 0 72.328124 50.800782 72.328124 110.933594 0 60.136719-33.117187 110.933594-72.328124 110.933594zm0 0"/><path d="m140.152344 85.476562c0-4.714843-3.820313-8.535156-8.535156-8.535156-48.460938 0-89.394532 58.617188-89.394532 128 0 4.714844 3.820313 8.535156 8.535156 8.535156 4.710938 0 8.53125-3.820312 8.53125-8.535156 0-60.132812 33.117188-110.933594 72.328126-110.933594 4.714843 0 8.535156-3.820312 8.535156-8.53125zm0 0"/><path d="m212.480469 196.410156c-4.714844 0-8.535157 3.820313-8.535157 8.53125 0 60.136719-33.117187 110.933594-72.328124 110.933594-4.710938 0-8.53125 3.820312-8.53125 8.535156 0 4.710938 3.820312 8.53125 8.53125 8.53125 48.4375 0 89.394531-58.613281 89.394531-128 0-4.710937-3.820313-8.53125-8.53125-8.53125zm0 0"/><path d="m405.546875 121.476562c-1.765625-1.414062-4.023437-2.070312-6.273437-1.820312s-4.308594 1.382812-5.726563 3.152344l-68.265625 85.332031c-2.945312 3.683594-2.347656 9.054687 1.332031 12 3.679688 2.945313 9.050781 2.347656 11.996094-1.332031l68.269531-85.332032c1.414063-1.769531 2.070313-4.023437 1.820313-6.277343-.25-2.25-1.382813-4.308594-3.152344-5.722657zm0 0"/><path d="m410.617188 165.476562-68.269532 85.332032c-2.945312 3.679687-2.347656 9.054687 1.332032 12 3.679687 2.945312 9.050781 2.347656 12-1.332032l68.265624-85.335937c1.90625-2.378906 2.394532-5.597656 1.285157-8.4375s-3.648438-4.871094-6.664063-5.332031c-3.015625-.460938-6.046875.722656-7.949218 3.105468zm0 0"/></svg>